<svg xmlns="http://www.w3.org/2000/svg" xmlns:xlink="http://www.w3.org/1999/xlink" width="100" zoomAndPan="magnify" viewBox="0 0 75 37.5" height="50" preserveAspectRatio="xMidYMid meet" version="1.0"><defs><clipPath id="af9b68f226"><path d="M 4.195312 2.8125 L 35.28125 2.8125 L 35.28125 33.898438 L 4.195312 33.898438 Z M 4.195312 2.8125 " clip-rule="nonzero"/></clipPath><clipPath id="02e6036caf"><path d="M 39.425781 2.8125 L 70.511719 2.8125 L 70.511719 33.898438 L 39.425781 33.898438 Z M 39.425781 2.8125 " clip-rule="nonzero"/></clipPath></defs><path fill="#373737" d="M 19.738281 10.582031 C 14.894531 10.582031 10.753906 13.578125 9.0625 17.8125 C 9.402344 17.902344 9.726562 18.035156 10.023438 18.210938 C 10.59375 17.878906 11.257812 17.6875 11.964844 17.6875 C 12.671875 17.6875 13.335938 17.878906 13.910156 18.210938 C 14.480469 17.878906 15.144531 17.6875 15.851562 17.6875 C 16.558594 17.6875 17.222656 17.878906 17.792969 18.210938 C 18.152344 18.003906 18.542969 17.851562 18.960938 17.765625 L 18.960938 26.960938 C 18.960938 27.417969 18.585938 27.792969 18.125 27.792969 C 17.667969 27.792969 17.296875 27.417969 17.296875 26.960938 C 17.296875 26.53125 16.945312 26.183594 16.519531 26.183594 C 16.089844 26.183594 15.742188 26.53125 15.742188 26.960938 C 15.742188 28.273438 16.8125 29.34375 18.125 29.34375 C 19.441406 29.34375 20.515625 28.273438 20.515625 26.960938 L 20.515625 17.765625 C 20.929688 17.851562 21.324219 18.003906 21.679688 18.210938 C 22.25 17.878906 22.914062 17.6875 23.621094 17.6875 C 24.328125 17.6875 24.992188 17.878906 25.566406 18.210938 C 26.136719 17.878906 26.800781 17.6875 27.507812 17.6875 C 28.214844 17.6875 28.878906 17.878906 29.449219 18.210938 C 29.746094 18.035156 30.070312 17.902344 30.410156 17.8125 C 28.71875 13.578125 24.578125 10.582031 19.738281 10.582031 " fill-opacity="1" fill-rule="nonzero"/><path fill="#373737" d="M 27.089844 11.53125 C 27.460938 11.746094 27.9375 11.617188 28.152344 11.246094 C 28.363281 10.875 28.308594 9.414062 28.308594 9.414062 C 28.308594 9.414062 27.019531 10.097656 26.804688 10.46875 C 26.589844 10.839844 26.71875 11.316406 27.089844 11.53125 " fill-opacity="1" fill-rule="nonzero"/><path fill="#373737" d="M 24.222656 9.628906 C 24.59375 9.84375 25.070312 9.714844 25.285156 9.34375 C 25.5 8.972656 25.445312 7.511719 25.445312 7.511719 C 25.445312 7.511719 24.152344 8.195312 23.9375 8.566406 C 23.722656 8.9375 23.851562 9.414062 24.222656 9.628906 " fill-opacity="1" fill-rule="nonzero"/><path fill="#373737" d="M 20.300781 9.480469 C 20.671875 9.695312 21.144531 9.566406 21.359375 9.195312 C 21.574219 8.824219 21.519531 7.363281 21.519531 7.363281 C 21.519531 7.363281 20.230469 8.046875 20.015625 8.417969 C 19.800781 8.789062 19.925781 9.265625 20.300781 9.480469 " fill-opacity="1" fill-rule="nonzero"/><g clip-path="url(#af9b68f226)"><path fill="#373737" d="M 35.28125 2.8125 L 4.195312 2.8125 L 4.195312 33.898438 L 35.28125 33.898438 Z M 33.726562 4.367188 L 33.726562 32.34375 L 5.75 32.34375 L 5.75 4.367188 L 33.726562 4.367188 " fill-opacity="1" fill-rule="nonzero"/></g><path fill="#373737" d="M 55.03125 14.496094 L 61.148438 10.964844 L 55.03125 7.429688 L 48.914062 10.964844 L 55.03125 14.496094 " fill-opacity="1" fill-rule="nonzero"/><path fill="#373737" d="M 55.425781 15.175781 L 55.425781 22.242188 L 61.542969 18.707031 L 61.542969 11.644531 L 55.425781 15.175781 " fill-opacity="1" fill-rule="nonzero"/><path fill="#373737" d="M 48.519531 11.644531 L 48.519531 18.707031 L 54.636719 22.242188 L 54.636719 15.175781 L 48.519531 11.644531 " fill-opacity="1" fill-rule="nonzero"/><path fill="#373737" d="M 52.0625 23.417969 L 51.742188 23.234375 L 51.078125 22.851562 L 47.265625 20.648438 C 47.082031 20.542969 46.882812 20.492188 46.695312 20.492188 C 46.089844 20.492188 45.539062 20.972656 45.539062 21.648438 C 45.539062 22.0625 45.757812 22.441406 46.113281 22.648438 L 47.113281 23.222656 L 49.417969 24.554688 L 49.417969 25.089844 L 46.878906 23.628906 L 45.878906 23.050781 C 45.382812 22.761719 45.074219 22.226562 45.074219 21.648438 C 45.074219 20.894531 45.585938 20.261719 46.285156 20.078125 L 46.285156 15.695312 C 46.285156 15.0625 45.796875 14.511719 45.164062 14.496094 C 44.511719 14.476562 43.976562 15 43.976562 15.648438 L 43.976562 23.59375 C 43.976562 24.148438 44.273438 24.664062 44.753906 24.941406 L 48.519531 27.113281 L 49.417969 27.632812 L 50.09375 28.023438 L 50.695312 28.371094 L 50.695312 29.34375 L 54.636719 29.34375 L 54.636719 25.800781 C 54.636719 25.246094 54.339844 24.730469 53.859375 24.453125 L 52.0625 23.417969 " fill-opacity="1" fill-rule="nonzero"/><path fill="#373737" d="M 57.871094 23.417969 L 58.191406 23.234375 L 58.855469 22.851562 L 62.667969 20.648438 C 62.667969 20.648438 62.667969 20.648438 62.671875 20.648438 C 62.851562 20.542969 63.050781 20.492188 63.242188 20.492188 C 63.84375 20.492188 64.394531 20.972656 64.394531 21.648438 C 64.394531 22.0625 64.175781 22.441406 63.820312 22.648438 L 62.820312 23.222656 L 60.515625 24.554688 L 60.515625 25.089844 L 63.054688 23.628906 L 64.054688 23.050781 C 64.550781 22.761719 64.863281 22.226562 64.863281 21.648438 C 64.863281 20.894531 64.347656 20.261719 63.652344 20.078125 L 63.652344 15.695312 C 63.652344 15.0625 64.136719 14.511719 64.769531 14.496094 C 65.421875 14.476562 65.957031 15 65.957031 15.648438 L 65.957031 23.59375 C 65.957031 24.148438 65.660156 24.664062 65.179688 24.941406 L 61.414062 27.113281 L 60.515625 27.632812 L 59.839844 28.023438 L 59.238281 28.371094 L 59.238281 29.34375 L 55.296875 29.34375 L 55.296875 25.800781 C 55.296875 25.246094 55.59375 24.730469 56.074219 24.453125 L 57.871094 23.417969 " fill-opacity="1" fill-rule="nonzero"/><g clip-path="url(#02e6036caf)"><path fill="#373737" d="M 70.511719 2.8125 L 39.425781 2.8125 L 39.425781 33.898438 L 70.511719 33.898438 Z M 68.957031 4.367188 L 68.957031 32.34375 L 40.980469 32.34375 L 40.980469 4.367188 L 68.957031 4.367188 " fill-opacity="1" fill-rule="nonzero"/></g></svg>