<svg xmlns="http://www.w3.org/2000/svg" xmlns:xlink="http://www.w3.org/1999/xlink" width="100" zoomAndPan="magnify" viewBox="0 0 75 37.5" height="50" preserveAspectRatio="xMidYMid meet" version="1.0"><defs><clipPath id="2f7a4d4341"><path d="M 4.195312 2.8125 L 35.28125 2.8125 L 35.28125 33.898438 L 4.195312 33.898438 Z M 4.195312 2.8125 " clip-rule="nonzero"/></clipPath><clipPath id="adf2fbbfb6"><path d="M 39.425781 2.8125 L 70.511719 2.8125 L 70.511719 33.898438 L 39.425781 33.898438 Z M 39.425781 2.8125 " clip-rule="nonzero"/></clipPath></defs><path fill="#373737" d="M 20.515625 19.027344 L 27.507812 10.582031 L 21.800781 10.582031 L 21.648438 10.785156 L 20.746094 11.972656 L 22.144531 12.039062 L 22.460938 12.054688 L 22.296875 12.304688 L 20.230469 15.480469 L 21.847656 12.40625 L 20.230469 12.480469 L 19.738281 12.503906 L 20.011719 12.066406 L 20.929688 10.582031 L 11.964844 10.582031 L 18.960938 19.027344 L 18.960938 27.8125 C 17.1875 27.9375 15.53125 28.480469 14.089844 29.34375 L 25.386719 29.34375 C 23.941406 28.480469 22.285156 27.9375 20.515625 27.8125 L 20.515625 19.027344 " fill-opacity="1" fill-rule="nonzero"/><g clip-path="url(#2f7a4d4341)"><path fill="#373737" d="M 35.28125 2.8125 L 4.195312 2.8125 L 4.195312 33.898438 L 35.28125 33.898438 Z M 33.726562 4.367188 L 33.726562 32.34375 L 5.75 32.34375 L 5.75 4.367188 L 33.726562 4.367188 " fill-opacity="1" fill-rule="nonzero"/></g><path fill="#373737" d="M 65.957031 29.34375 L 43.976562 29.34375 L 43.976562 26.125 L 65.957031 26.125 L 65.957031 29.34375 " fill-opacity="1" fill-rule="nonzero"/><path fill="#373737" d="M 65.957031 11.917969 L 63.011719 11.917969 L 63.011719 22.757812 L 59.796875 22.757812 L 59.796875 11.917969 L 56.851562 11.917969 L 61.40625 7.363281 L 65.957031 11.917969 " fill-opacity="1" fill-rule="nonzero"/><path fill="#373737" d="M 53.082031 11.917969 L 50.136719 11.917969 L 50.136719 22.757812 L 46.921875 22.757812 L 46.921875 11.917969 L 43.976562 11.917969 L 48.527344 7.363281 L 53.082031 11.917969 " fill-opacity="1" fill-rule="nonzero"/><g clip-path="url(#adf2fbbfb6)"><path fill="#373737" d="M 70.511719 2.8125 L 39.425781 2.8125 L 39.425781 33.898438 L 70.511719 33.898438 Z M 68.957031 4.367188 L 68.957031 32.34375 L 40.980469 32.34375 L 40.980469 4.367188 L 68.957031 4.367188 " fill-opacity="1" fill-rule="nonzero"/></g></svg>