<svg xmlns="http://www.w3.org/2000/svg" xmlns:xlink="http://www.w3.org/1999/xlink" width="80" zoomAndPan="magnify" viewBox="0 0 60 37.5" height="50" preserveAspectRatio="xMidYMid meet" version="1.0"><defs><clipPath id="35b757df0c"><path d="M 0.402344 3.367188 L 59.589844 3.367188 L 59.589844 33.707031 L 0.402344 33.707031 Z M 0.402344 3.367188 " clip-rule="nonzero"/></clipPath></defs><g clip-path="url(#35b757df0c)"><path fill="#373737" d="M 6.933594 4.449219 C 3.925781 4.449219 1.484375 6.902344 1.484375 9.914062 L 1.484375 27.160156 C 1.484375 30.171875 3.925781 32.625 6.933594 32.625 L 53.0625 32.625 C 56.066406 32.625 58.511719 30.171875 58.511719 27.160156 L 58.511719 9.914062 C 58.511719 6.902344 56.066406 4.449219 53.0625 4.449219 Z M 53.0625 33.707031 L 6.933594 33.707031 C 3.332031 33.707031 0.402344 30.769531 0.402344 27.160156 L 0.402344 9.914062 C 0.402344 6.304688 3.332031 3.367188 6.933594 3.367188 L 53.0625 3.367188 C 56.660156 3.367188 59.589844 6.304688 59.589844 9.914062 L 59.589844 27.160156 C 59.589844 30.769531 56.660156 33.707031 53.0625 33.707031 " fill-opacity="1" fill-rule="nonzero"/></g><path fill="#373737" d="M 36.613281 15.746094 C 36.453125 17.84375 34.351562 18.035156 33.136719 17.90625 C 32.007812 17.792969 30.929688 17.292969 30.316406 16.839844 L 31.246094 15.300781 C 32.082031 16.253906 34.257812 16.582031 34.425781 15.769531 C 34.710938 14.433594 30.507812 15.144531 30.867188 12.1875 C 31.003906 11.085938 31.804688 10.039062 34.066406 10.164062 C 35.503906 10.25 36.210938 10.757812 36.367188 10.886719 L 35.652344 12.476562 C 34.976562 11.828125 33.085938 11.457031 32.90625 12.328125 C 32.660156 13.46875 36.800781 13.078125 36.613281 15.746094 " fill-opacity="1" fill-rule="nonzero"/><path fill="#373737" d="M 41.175781 15.894531 L 42.117188 17.09375 C 41.617188 17.601562 40.847656 17.90625 40.085938 17.90625 C 38.503906 17.90625 37.257812 16.699219 37.257812 15.207031 C 37.257812 13.714844 38.460938 12.496094 40.085938 12.496094 C 40.847656 12.496094 41.609375 12.8125 42.117188 13.3125 L 41.113281 14.476562 C 40.785156 14.234375 40.476562 14.085938 40.085938 14.105469 C 39.507812 14.128906 38.945312 14.476562 38.945312 15.207031 C 38.945312 15.875 39.507812 16.277344 40.085938 16.308594 C 40.53125 16.328125 40.878906 16.140625 41.175781 15.894531 " fill-opacity="1" fill-rule="nonzero"/><path fill="#373737" d="M 45.78125 16.03125 C 45.78125 15.875 45.78125 15.484375 45.78125 15.484375 C 45.78125 15.484375 45.074219 15.449219 44.765625 15.671875 C 44.386719 15.9375 44.511719 16.574219 45.125 16.574219 C 45.632812 16.574219 45.78125 16.246094 45.78125 16.03125 Z M 47.554688 14.488281 C 47.554688 15.992188 47.554688 17.75 47.554688 17.75 L 45.78125 17.75 L 45.78125 17.25 C 45.464844 17.675781 44.945312 17.90625 44.292969 17.90625 C 43.996094 17.90625 42.800781 17.71875 42.757812 16.414062 C 42.726562 15.3125 43.46875 14.816406 44.207031 14.6875 C 44.683594 14.601562 45.421875 14.5625 45.78125 14.550781 C 45.78125 14.339844 45.664062 13.882812 45.042969 13.882812 C 44.355469 13.882812 43.730469 14.167969 43.488281 14.296875 L 43.003906 13.140625 C 43.382812 12.878906 44.269531 12.496094 45.261719 12.496094 C 46.394531 12.496094 47.554688 12.917969 47.554688 14.488281 " fill-opacity="1" fill-rule="nonzero"/><path fill="#373737" d="M 53.765625 14.488281 L 53.765625 17.75 L 51.980469 17.75 L 51.992188 14.710938 C 51.992188 14.128906 51.546875 13.90625 51.230469 13.90625 C 50.914062 13.90625 50.40625 14.105469 50.398438 14.675781 L 50.398438 17.75 L 48.613281 17.75 L 48.613281 12.664062 L 50.398438 12.664062 L 50.398438 13.152344 C 50.703125 12.804688 51.273438 12.496094 51.832031 12.496094 C 53.121094 12.496094 53.765625 13.238281 53.765625 14.488281 " fill-opacity="1" fill-rule="nonzero"/><path fill="#373737" d="M 38.207031 23.492188 L 38.207031 26.753906 L 36.433594 26.753906 L 36.433594 23.714844 C 36.433594 23.132812 36.148438 22.910156 35.839844 22.910156 C 35.511719 22.910156 35.175781 23.121094 35.152344 23.683594 L 35.152344 26.753906 L 33.378906 26.753906 L 33.378906 23.714844 C 33.378906 23.132812 33.09375 22.910156 32.789062 22.910156 C 32.460938 22.910156 32.113281 23.121094 32.101562 23.683594 L 32.101562 26.753906 L 30.316406 26.753906 L 30.316406 21.667969 L 32.101562 21.667969 L 32.101562 22.15625 C 32.375 21.808594 32.863281 21.5 33.378906 21.5 C 34.214844 21.5 34.617188 21.816406 34.910156 22.367188 C 35.164062 21.945312 35.914062 21.5 36.433594 21.5 C 37.722656 21.5 38.207031 22.253906 38.207031 23.492188 " fill-opacity="1" fill-rule="nonzero"/><path fill="#373737" d="M 40.613281 23.757812 L 42.433594 23.757812 C 42.335938 23.257812 41.96875 23.015625 41.503906 23.015625 C 41.082031 23.015625 40.742188 23.289062 40.613281 23.757812 Z M 40.730469 24.835938 C 40.902344 25.21875 41.238281 25.449219 41.597656 25.503906 C 42.304688 25.609375 42.84375 25.269531 42.980469 25.101562 L 43.667969 26.066406 C 43.023438 26.660156 42.453125 26.914062 41.503906 26.914062 C 40.117188 26.914062 38.945312 25.703125 38.945312 24.210938 C 38.945312 22.71875 40.117188 21.5 41.503906 21.5 C 42.898438 21.5 43.964844 22.601562 43.964844 24.09375 C 43.964844 24.347656 43.953125 24.59375 43.910156 24.835938 L 40.730469 24.835938 " fill-opacity="1" fill-rule="nonzero"/><path fill="#373737" d="M 46.667969 26.914062 C 46.183594 26.914062 45.792969 26.519531 45.792969 26.035156 C 45.792969 25.558594 46.183594 25.164062 46.667969 25.164062 C 47.144531 25.164062 47.542969 25.558594 47.542969 26.035156 C 47.542969 26.519531 47.144531 26.914062 46.667969 26.914062 Z M 47.332031 24.160156 L 45.992188 24.160156 L 45.652344 19.339844 L 47.671875 19.339844 L 47.332031 24.160156 " fill-opacity="1" fill-rule="nonzero"/><path fill="#373737" d="M 53.863281 26.246094 C 53.863281 26.289062 53.832031 26.320312 53.789062 26.320312 L 50.414062 26.320312 C 50.371094 26.320312 50.335938 26.289062 50.335938 26.246094 L 50.335938 19.804688 C 50.335938 19.761719 50.371094 19.726562 50.414062 19.726562 L 53.789062 19.726562 C 53.832031 19.726562 53.863281 19.761719 53.863281 19.804688 Z M 52.488281 26.703125 C 52.488281 26.773438 52.429688 26.832031 52.355469 26.832031 L 51.84375 26.832031 C 51.773438 26.832031 51.714844 26.773438 51.714844 26.703125 L 51.714844 26.699219 C 51.714844 26.628906 51.773438 26.570312 51.84375 26.570312 L 52.355469 26.570312 C 52.429688 26.570312 52.488281 26.628906 52.488281 26.699219 Z M 51.457031 19.339844 C 51.457031 19.28125 51.503906 19.238281 51.558594 19.238281 L 52.640625 19.238281 C 52.699219 19.238281 52.742188 19.28125 52.742188 19.339844 C 52.742188 19.398438 52.699219 19.441406 52.640625 19.441406 L 51.558594 19.441406 C 51.503906 19.441406 51.457031 19.398438 51.457031 19.339844 Z M 53.679688 18.957031 L 50.523438 18.957031 C 50.175781 18.957031 49.898438 19.238281 49.898438 19.585938 L 49.898438 26.464844 C 49.898438 26.808594 50.175781 27.089844 50.523438 27.089844 L 53.679688 27.089844 C 54.023438 27.089844 54.304688 26.808594 54.304688 26.464844 L 54.304688 19.585938 C 54.304688 19.238281 54.023438 18.957031 53.679688 18.957031 " fill-opacity="1" fill-rule="nonzero"/><path fill="#373737" d="M 24.074219 29.292969 L 7.398438 29.292969 C 6.128906 29.292969 5.097656 28.253906 5.097656 26.984375 L 5.097656 10.261719 C 5.097656 8.988281 6.128906 7.957031 7.398438 7.957031 L 24.074219 7.957031 C 25.34375 7.957031 26.378906 8.988281 26.378906 10.261719 L 26.378906 26.984375 C 26.378906 28.253906 25.34375 29.292969 24.074219 29.292969 Z M 24.074219 6.917969 L 7.398438 6.917969 C 5.5625 6.917969 4.066406 8.417969 4.066406 10.261719 L 4.066406 26.984375 C 4.066406 28.828125 5.5625 30.328125 7.398438 30.328125 L 24.074219 30.328125 C 25.914062 30.328125 27.410156 28.828125 27.410156 26.984375 L 27.410156 10.261719 C 27.410156 8.417969 25.914062 6.917969 24.074219 6.917969 " fill-opacity="1" fill-rule="nonzero"/><path fill="#373737" d="M 11.882812 14.757812 L 7.996094 14.757812 L 7.996094 10.863281 L 11.882812 10.863281 Z M 12.710938 10.03125 L 7.167969 10.03125 L 7.167969 15.585938 L 12.710938 15.585938 L 12.710938 10.03125 " fill-opacity="1" fill-rule="nonzero"/><path fill="#373737" d="M 11.140625 11.605469 L 8.738281 11.605469 L 8.738281 14.011719 L 11.140625 14.011719 L 11.140625 11.605469 " fill-opacity="1" fill-rule="nonzero"/><path fill="#373737" d="M 11.28125 23.089844 L 8.796875 23.089844 L 8.796875 25.582031 L 11.28125 25.582031 L 11.28125 23.089844 " fill-opacity="1" fill-rule="nonzero"/><path fill="#373737" d="M 19.585938 10.863281 L 23.476562 10.863281 L 23.476562 14.765625 L 19.585938 14.765625 Z M 18.757812 15.597656 L 24.304688 15.597656 L 24.304688 10.03125 L 18.757812 10.03125 L 18.757812 15.597656 " fill-opacity="1" fill-rule="nonzero"/><path fill="#373737" d="M 22.734375 11.609375 L 20.328125 11.609375 L 20.328125 14.019531 L 22.734375 14.019531 L 22.734375 11.609375 " fill-opacity="1" fill-rule="nonzero"/><path fill="#373737" d="M 22.636719 21.457031 L 21.863281 21.457031 L 21.863281 20.683594 L 22.636719 20.683594 Z M 21.820312 22.273438 L 21.050781 22.273438 L 21.050781 21.5 L 21.820312 21.5 Z M 21.820312 23.90625 L 21.050781 23.90625 L 21.050781 23.132812 L 21.820312 23.132812 Z M 20.191406 22.273438 L 19.378906 22.273438 L 19.378906 23.132812 L 20.191406 23.132812 L 20.191406 23.90625 L 18.609375 23.90625 L 18.609375 23.089844 L 17.75 23.089844 L 17.75 24.722656 L 16.980469 24.722656 L 16.980469 23.089844 L 16.164062 23.089844 L 16.164062 22.316406 L 16.980469 22.316406 L 16.980469 21.5 L 17.75 21.5 L 17.75 22.316406 L 18.609375 22.316406 L 18.609375 21.457031 L 17.792969 21.457031 L 17.792969 19.867188 L 19.378906 19.867188 L 19.378906 21.5 L 20.191406 21.5 Z M 19.378906 25.539062 L 17.792969 25.539062 L 17.792969 24.765625 L 19.378906 24.765625 Z M 16.125 22.273438 L 15.351562 22.273438 L 15.351562 21.5 L 16.125 21.5 Z M 15.308594 21.457031 L 14.539062 21.457031 L 14.539062 20.683594 L 15.308594 20.683594 Z M 14.496094 20.640625 L 13.722656 20.640625 L 13.722656 19.050781 L 14.496094 19.050781 Z M 17.792969 18.234375 L 19.378906 18.234375 L 19.378906 19.007812 L 17.792969 19.007812 Z M 12.867188 18.195312 L 12.097656 18.195312 L 12.097656 17.421875 L 12.867188 17.421875 Z M 10.425781 18.195312 L 9.652344 18.195312 L 9.652344 17.421875 L 10.425781 17.421875 Z M 9.609375 19.824219 L 8.84375 19.824219 L 8.84375 19.007812 L 8.027344 19.007812 L 8.027344 17.421875 L 8.796875 17.421875 L 8.796875 18.234375 L 9.609375 18.234375 Z M 15.351562 12.523438 L 16.9375 12.523438 L 16.9375 14.113281 L 15.351562 14.113281 Z M 16.164062 10.890625 L 16.9375 10.890625 L 16.9375 11.664062 L 16.164062 11.664062 Z M 23.492188 18.195312 L 22.679688 18.195312 L 22.679688 17.421875 L 23.492188 17.421875 L 23.492188 16.5625 L 22.636719 16.5625 L 22.636719 17.378906 L 21.863281 17.378906 L 21.863281 16.5625 L 21.007812 16.5625 L 21.007812 17.421875 L 21.820312 17.421875 L 21.820312 18.195312 L 21.007812 18.195312 L 21.007812 19.050781 L 21.820312 19.050781 L 21.820312 20.640625 L 21.007812 20.640625 L 21.007812 21.457031 L 20.234375 21.457031 L 20.234375 19.824219 L 19.421875 19.824219 L 19.421875 19.050781 L 20.234375 19.050781 L 20.234375 18.195312 L 19.421875 18.195312 L 19.421875 17.421875 L 20.234375 17.421875 L 20.234375 16.5625 L 19.378906 16.5625 L 19.378906 17.378906 L 18.609375 17.378906 L 18.609375 16.5625 L 17.75 16.5625 L 17.75 17.378906 L 16.980469 17.378906 L 16.980469 16.5625 L 16.125 16.5625 L 16.125 18.234375 L 16.9375 18.234375 L 16.9375 19.007812 L 16.125 19.007812 L 16.125 19.867188 L 16.9375 19.867188 L 16.9375 21.457031 L 16.164062 21.457031 L 16.164062 20.640625 L 15.351562 20.640625 L 15.351562 18.195312 L 13.722656 18.195312 L 13.722656 17.421875 L 14.539062 17.421875 L 14.539062 16.605469 L 15.351562 16.605469 L 15.351562 15.746094 L 14.539062 15.746094 L 14.539062 14.15625 L 15.308594 14.15625 L 15.308594 14.972656 L 16.9375 14.972656 L 16.9375 15.789062 L 17.792969 15.789062 L 17.792969 14.929688 L 16.980469 14.929688 L 16.980469 14.15625 L 17.792969 14.15625 L 17.792969 10.847656 L 16.980469 10.847656 L 16.980469 10.03125 L 15.308594 10.03125 L 15.308594 10.847656 L 14.496094 10.847656 L 14.496094 11.707031 L 15.308594 11.707031 L 15.308594 12.480469 L 13.679688 12.480469 L 13.679688 13.339844 L 14.496094 13.339844 L 14.496094 14.113281 L 13.679688 14.113281 L 13.679688 15.789062 L 14.496094 15.789062 L 14.496094 16.5625 L 12.054688 16.5625 L 12.054688 17.378906 L 10.46875 17.378906 L 10.46875 16.5625 L 7.167969 16.5625 L 7.167969 19.050781 L 7.988281 19.050781 L 7.988281 19.863281 L 8.796875 19.863281 L 8.796875 20.683594 L 11.28125 20.683594 L 11.28125 19.050781 L 12.867188 19.050781 L 12.867188 19.824219 L 12.054688 19.824219 L 12.054688 20.683594 L 13.679688 20.683594 L 13.679688 22.316406 L 15.308594 22.316406 L 15.308594 23.902344 L 14.539062 23.902344 L 14.539062 23.089844 L 13.679688 23.089844 L 13.679688 23.949219 L 14.503906 23.949219 L 14.503906 24.722656 L 13.679688 24.722656 L 13.679688 27.214844 L 14.539062 27.214844 L 14.539062 24.761719 L 15.359375 24.761719 L 15.359375 23.949219 L 16.125 23.949219 L 16.125 24.765625 L 16.9375 24.765625 L 16.9375 25.539062 L 16.125 25.539062 L 16.125 26.355469 L 15.308594 26.355469 L 15.308594 27.214844 L 16.164062 27.214844 L 16.164062 26.398438 L 16.9375 26.398438 L 16.9375 27.214844 L 17.792969 27.214844 L 17.792969 26.398438 L 19.378906 26.398438 L 19.378906 27.214844 L 20.234375 27.214844 L 20.234375 26.355469 L 19.421875 26.355469 L 19.421875 25.582031 L 20.234375 25.582031 L 20.234375 23.949219 L 21.007812 23.949219 L 21.007812 24.765625 L 21.820312 24.765625 L 21.820312 26.398438 L 22.636719 26.398438 L 22.636719 27.214844 L 23.492188 27.214844 L 23.492188 26.355469 L 22.679688 26.355469 L 22.679688 24.722656 L 21.863281 24.722656 L 21.863281 23.949219 L 23.492188 23.949219 L 23.492188 23.089844 L 22.679688 23.089844 L 22.679688 22.316406 L 23.492188 22.316406 L 23.492188 20.640625 L 22.679688 20.640625 L 22.679688 19.867188 L 24.304688 19.867188 L 24.304688 19.007812 L 23.492188 19.007812 L 23.492188 18.195312 " fill-opacity="1" fill-rule="nonzero"/><path fill="#373737" d="M 8.027344 22.316406 L 12.054688 22.316406 L 12.054688 26.355469 L 8.027344 26.355469 Z M 7.167969 27.214844 L 12.910156 27.214844 L 12.910156 21.457031 L 7.167969 21.457031 L 7.167969 27.214844 " fill-opacity="1" fill-rule="nonzero"/></svg>