<svg xmlns="http://www.w3.org/2000/svg" xmlns:xlink="http://www.w3.org/1999/xlink" width="50" zoomAndPan="magnify" viewBox="0 0 37.5 37.499999" height="50" preserveAspectRatio="xMidYMid meet" version="1.0"><defs><clipPath id="3a403691b8"><path d="M 19 22 L 36 22 L 36 37.007812 L 19 37.007812 Z M 19 22 " clip-rule="nonzero"/></clipPath></defs><path fill="#373737" d="M 25.480469 18.011719 L 33.136719 13.277344 L 36.566406 20.121094 C 37.398438 23.859375 32.855469 25.230469 29.210938 25.007812 Z M 25.480469 18.011719 " fill-opacity="1" fill-rule="evenodd"/><g clip-path="url(#3a403691b8)"><path fill="#373737" d="M 23.742188 22.898438 L 19.714844 30.253906 L 23.742188 37.710938 L 23.839844 34.726562 L 27.519531 34.726562 C 28.863281 34.847656 30.601562 33.9375 31.25 32.617188 L 35.972656 23.667969 C 34.414062 25.261719 32.410156 25.675781 30.105469 25.675781 L 23.890625 25.675781 Z M 23.742188 22.898438 " fill-opacity="1" fill-rule="evenodd"/></g><path fill="#373737" d="M 14.742188 13.828125 L 7.027344 9.199219 L 11.144531 2.777344 C 13.898438 0.210938 17.265625 3.652344 18.84375 7.058594 Z M 14.742188 13.828125 " fill-opacity="1" fill-rule="evenodd"/><path fill="#373737" d="M 19.71875 13.03125 L 27.886719 13.101562 L 32.238281 5.839844 L 29.667969 7.199219 L 27.882812 3.871094 C 27.332031 2.597656 25.71875 1.464844 24.289062 1.519531 L 14.433594 1.59375 C 16.535156 2.226562 17.855469 3.839844 18.976562 5.925781 L 21.992188 11.546875 Z M 19.71875 13.03125 " fill-opacity="1" fill-rule="evenodd"/><path fill="#373737" d="M 1.125 13.445312 L 3.515625 15.335938 L 1.265625 19.703125 C 0.140625 21.714844 2.070312 23.675781 3.304688 24.355469 C 4.515625 25.027344 6.398438 25.109375 8.15625 25.085938 L 11.320312 19.847656 L 13.710938 21.15625 L 9.5625 13.371094 Z M 1.125 13.445312 " fill-opacity="1" fill-rule="evenodd"/><path fill="#373737" d="M 1.476562 23.558594 L 6.605469 33.160156 C 7.636719 34.492188 9.582031 34.808594 11.601562 34.757812 L 17.015625 34.757812 L 17.015625 25.667969 L 6.75 25.59375 C 5.152344 25.691406 3.066406 25.351562 1.476562 23.558594 Z M 1.476562 23.558594 " fill-opacity="1" fill-rule="evenodd"/></svg>